<?xml version="1.0" encoding="utf-8"?>
<!-- Generator: Adobe Illustrator 23.0.1, SVG Export Plug-In . SVG Version: 6.00 Build 0)  -->
<svg version="1.1" id="Layer_1" xmlns="http://www.w3.org/2000/svg" xmlns:xlink="http://www.w3.org/1999/xlink" x="0px" y="0px"
	 viewBox="0 0 512 512" style="enable-background:new 0 0 512 512;" xml:space="preserve">
<style type="text/css">
	.st0{fill:#E4FDE1;}
</style>
<g>
	<g>
		<g>
			<path class="st0" d="M280.2,387.1l106.1,104.6c2.3,2.2,5.4,3.6,8.9,3.6s6.6-1.4,8.8-3.7l104.6-106.1c3.4-3.5,4.6-8.9,2.6-13.7
				c-2-4.8-6.7-7.7-11.6-7.6l-29.2,0.2l-1-139.7c0-3.2-1.3-6.4-3.7-8.8c-2.5-2.4-5.7-3.6-8.9-3.6l-127.2,0.9c-3.2,0-6.4,1.3-8.8,3.7
				c-2.4,2.5-3.6,5.7-3.6,8.9l1,139.7l-29.2,0.2c-4.9,0-9.5,3-11.5,7.8C275.5,378.3,276.7,383.7,280.2,387.1z"/>
			<rect x="296.1" y="55" class="st0" width="33.6" height="77.7"/>
			<path class="st0" d="M299.5,307.3H131.6c-3.1,0.1-5.7,2.7-5.7,5.8c0,3.2,2.6,5.7,5.7,5.7h168L299.5,307.3z"/>
			<path class="st0" d="M267.7,400.4H131.6c-3.1,0.1-5.7,2.7-5.7,5.8c0,3.2,2.6,5.7,5.7,5.7h147.8L267.7,400.4z"/>
			<path class="st0" d="M323.6,455.5H98c-6.3,0-11.4-5.1-11.4-11.4V275.3c0-6.3,5.2-11.4,11.4-11.4h201.2l-0.3-38.2
				c0-8.1,3.1-15.7,8.7-21.6l0.3-0.3c5.7-5.7,13.6-9,21.7-9.1l127.3-0.9c0.4,0,0.7,0,1.1,0v-65.7c0-4.4-0.8-8.8-2.6-13.1
				c-1.8-4.3-4.3-8-7.5-11.1l-77-77c-3.1-3.1-6.8-5.7-11.1-7.4c-4.3-1.8-8.8-2.6-13.1-2.6H34.3c-8.8,0-17.6,3.4-24.3,10.1
				C3.3,33.6,0,42.4,0,51.2v389.2c0,8.8,3.3,17.6,10.1,24.3c6.7,6.7,15.5,10.1,24.3,10.1h308.8L323.6,455.5z M111.9,48.9
				c0-2.9,1.1-5.9,3.4-8.1c2.2-2.2,5.2-3.4,8.1-3.4h211.2c2.9,0,5.9,1.1,8.1,3.4c2.2,2.2,3.3,5.2,3.3,8.1v89.9
				c0,2.9-1.1,5.9-3.3,8.1c-2.2,2.2-5.2,3.4-8.1,3.4H123.4c-2.9,0-5.8-1.1-8.1-3.4c-2.2-2.2-3.4-5.2-3.4-8.1V48.9z M34.3,455.4
				c-8.3,0-15.1-6.7-15.1-15.1c0-8.3,6.8-15.1,15.1-15.1s15.1,6.7,15.1,15.1S42.7,455.4,34.3,455.4z"/>
			<path class="st0" d="M270.3,353.8H131.6c-3.1,0.1-5.7,2.7-5.7,5.8c0,3.2,2.6,5.7,5.7,5.7h129.5
				C263.3,360.7,266.4,356.8,270.3,353.8z"/>
		</g>
	</g>
</g>
</svg>
